PathFileType	4	(X/Y/Z)	Kaydara																																																																																																																																																																																																																																																	
DataRate	CameraRate	NumFrames	NumMarkers	Units	OrigDataRate	OrigDataStartFrame	OrigNumFrames																																																																																																																																																																																																																																													
30	30	6	41	mm	30	99	273																																																																																																																																																																																																																																													
Frame#	Time	SALE_LFHD			SALE_RFHD			SALE_LBHD			SALE_RBHD			SALE_LFTShould			SALE_RFTShould			SALE_LRRShould			SALE_RRRShould			SALE_T10			SALE_STRN			SALE_TRUN			SALE_LSHO			SALE_LUPA			SALE_LELB			SALE_LFRM			SALE_LWRA			SALE_LWRB			SALE_LFIN			SALE_RSHO			SALE_RUPA			SALE_RELB			SALE_RFRM			SALE_RWRB			SALE_RFIN			SALE_LFWT			SALE_RFWT			SALE_LBWT			SALE_RBWT			SALE_LTHI			SALE_LKNE			SALE_RWRA			SALE_LSHN			SALE_LANK			SALE_LHEE			SALE_LTOE			SALE_RTHI			SALE_RKNE			SALE_RSHN			SALE_RANK			SALE_RHEE			SALE_RTOE																																																																																																																										
		X1	Y1	Z1	X2	Y2	Z2	X3	Y3	Z3	X4	Y4	Z4	X5	Y5	Z5	X6	Y6	Z6	X7	Y7	Z7	X8	Y8	Z8	X9	Y9	Z9	X10	Y10	Z10	X11	Y11	Z11	X12	Y12	Z12	X13	Y13	Z13	X14	Y14	Z14	X15	Y15	Z15	X16	Y16	Z16	X17	Y17	Z17	X18	Y18	Z18	X19	Y19	Z19	X20	Y20	Z20	X21	Y21	Z21	X22	Y22	Z22	X23	Y23	Z23	X24	Y24	Z24	X25	Y25	Z25	X26	Y26	Z26	X27	Y27	Z27	X28	Y28	Z28	X29	Y29	Z29	X30	Y30	Z30	X31	Y31	Z31	X32	Y32	Z32	X33	Y33	Z33	X34	Y34	Z34	X35	Y35	Z35	X36	Y36	Z36	X37	Y37	Z37	X38	Y38	Z38	X39	Y39	Z39	X40	Y40	Z40	X41	Y41	Z41																																																																																																																							Y81	Z81
																																																																																																																																																																																																																																																				
69	3.267	222.89354	1618.49472	-1924.04449	93.22922	1613.9682	-1926.43066	220.84934	1656.60629	-2051.72897	95.33467	1649.72763	-2047.80029	237.41838	1387.7359	-2022.78824	97.61511	1386.58203	-2020.81314	229.80047	1444.5195	-2138.24677	78.62542	1448.23715	-2126.76926	153.0241	1289.52942	-2196.259	165.83033	1318.24158	-1973.02582	165.09012	1234.21776	-1928.00659	352.99683	1411.52771	-2095.40527	393.29308	1192.24884	-2097.92221	378.01212	1083.71895	-2113.43857	403.31081	979.12872	-2075.52719	335.2895	845.77751	-2008.51517	403.27869	835.82344	-2041.59241	396.93504	795.98824	-1991.13754	-12.32039	1414.02084	-2080.24704	-51.58299	1183.38295	-2133.39005	-72.61089	1083.73474	-2081.04691	-67.31205	970.52383	-2088.87177	-74.27553	833.46939	-2037.67166	-72.35128	795.32288	-1982.39609	291.7075	976.00754	-1976.33499	11.67235	971.84875	-1992.60361	241.77015	1043.95081	-2144.93576	63.67964	1047.00768	-2154.26407	298.63136	676.40587	-2141.95236	280.57133	505.46738	-2063.57437	-19.54481	847.04788	-1992.70203	275.28788	307.53929	-2067.99011	276.10992	123.95481	-2118.965	244.94745	75.27881	-2184.93912	235.51161	86.46556	-1987.88284	7.50651	722.54379	-2154.32266	27.78488	561.43002	-2052.90405	80.03386	374.00703	-2071.35117	33.66051	124.27364	-2128.03665	43.88408	77.93848	-2008.76724	78.5398	63.02918	-2198.80936																																																																																																																							0	-0.00191
70	3.3	224.10206	1618.71674	-1921.52664	94.58336	1614.27963	-1924.25232	222.95338	1656.16013	-2048.66898	96.91805	1649.68399	-2045.78522	238.87449	1387.56134	-2020.16907	98.92317	1386.49963	-2018.35068	231.19812	1444.51157	-2135.60745	80.05295	1448.41232	-2124.11545	154.2115	1289.78333	-2193.96362	167.12149	1317.97928	-1970.77179	166.0326	1233.8192	-1925.78384	354.28066	1411.21674	-2092.73224	394.46419	1192.09427	-2095.78415	378.9785	1083.47511	-2111.3945	404.07196	978.75832	-2073.62473	335.87654	845.39986	-2006.85791	403.88138	835.37018	-2039.8613	397.40517	795.55161	-1989.57047	-10.97087	1414.31213	-2077.72705	-50.5025	1183.72581	-2131.409	-71.76702	1084.02908	-2079.30054	-66.59002	970.92216	-2087.51465	-73.81438	833.68393	-2036.57516	-71.97045	795.39169	-1981.46622	292.3999	975.63713	-1974.75311	12.4713	971.74706	-1991.13388	242.62632	1043.94165	-2143.19061	64.52962	1047.08206	-2152.66022	299.13425	676.38969	-2140.69611	280.92129	505.38521	-2062.67487	-19.29465	846.91193	-1991.55334	275.41393	307.38667	-2067.48001	276.18326	123.88414	-2118.84476	244.96899	75.27122	-2184.92065	235.53072	86.48594	-1987.89261	8.17399	722.49352	-2152.85004	28.25585	561.44726	-2051.63239	80.4569	373.89763	-2070.41412	33.75196	124.33779	-2127.76169	43.84732	77.90117	-2008.77472	78.54286	63.02875	-2198.82736																																																																																																																							0	-0.00191
71	3.333	225.80172	1618.85941	-1918.8385	96.14735	1614.61914	-1921.58936	224.78752	1656.11053	-2046.18805	98.68994	1649.64661	-2043.19321	240.47642	1387.51343	-2017.35001	100.42969	1386.33957	-2015.4213	232.75604	1444.48868	-2132.58987	81.62392	1448.66318	-2121.09573	155.55593	1290.056	-2191.40549	168.40273	1317.57645	-1968.02963	167.38621	1233.37234	-1923.4758	355.73833	1410.99701	-2089.9263	395.57148	1191.74767	-2093.29941	379.98489	1083.14224	-2109.14749	404.9316	978.39783	-2071.56418	336.37398	844.96712	-2005.01022	404.39575	834.96468	-2038.02383	397.93213	795.08949	-1987.83295	-9.4372	1414.48502	-2074.76288	-49.32241	1184.27162	-2129.20181	-70.78002	1084.34776	-2077.35352	-65.69937	971.17119	-2085.78995	-73.17701	833.88779	-2035.31265	-71.44205	795.45967	-1980.22141	293.33509	975.40901	-1972.85126	13.23359	971.73248	-1989.29962	243.53662	1043.93837	-2141.21902	65.52678	1047.19421	-2150.76035	299.77459	676.37321	-2139.32388	281.3344	505.3487	-2061.65741	-18.51811	846.93489	-1990.15518	275.61327	307.19955	-2066.88217	276.22454	123.86582	-2118.73886	244.96544	75.318	-2184.95377	235.54243	86.47106	-1987.90726	8.94964	722.63275	-2151.35468	28.90296	561.4138	-2050.27176	81.00912	373.7006	-2069.51996	33.8778	124.38156	-2127.59064	43.79073	77.93905	-2008.76694	78.54927	63.0559	-2198.83423																																																																																																																							0	-0.00191
72	3.367	227.6812	1618.95462	-1915.67749	97.92627	1614.82269	-1918.61771	225.92892	1656.35834	-2044.66385	100.65514	1649.49234	-2040.20386	242.25443	1387.31613	-2014.07867	101.19596	1386.34918	-2012.81326	234.45398	1444.4696	-2129.23096	83.31412	1448.86749	-2117.69272	156.93303	1290.35095	-2188.46634	169.89159	1317.18887	-1964.99878	168.71546	1232.87682	-1920.73563	357.28706	1410.60562	-2086.5744	396.76128	1191.31531	-2090.56366	381.0799	1082.89459	-2106.7276	405.73971	977.93449	-2069.25827	336.97693	844.6347	-2002.97928	404.93416	834.50882	-2036.01471	398.38318	794.49898	-1985.83023	-7.79231	1414.66583	-2071.3649	-48.00845	1184.63005	-2126.53564	-69.61004	1084.70772	-2075.06744	-64.6255	971.43631	-2083.73627	-72.28608	834.10172	-2033.72559	-70.62383	795.46066	-1978.74588	294.20374	974.95476	-1970.53116	14.35099	971.66992	-1987.12997	244.67178	1043.89069	-2138.9772	66.62359	1047.23389	-2148.55255	300.54998	676.38069	-2137.77679	281.80935	505.17735	-2060.47226	-17.44954	846.84059	-1988.42697	275.92093	306.99776	-2066.20895	276.30297	123.83215	-2118.59512	244.97314	75.35512	-2184.94675	235.56093	86.48108	-1987.93228	9.83417	722.78191	-2149.80743	29.59114	561.38683	-2048.85925	81.45536	373.45322	-2068.40851	34.0429	124.44461	-2127.48123	43.77948	77.92781	-2008.78647	78.59882	63.04015	-2198.85193																																																																																																																							0	-0.00191
73	3.4	229.38086	1618.9035	-1911.90994	99.85834	1614.97086	-1915.02029	228.17322	1655.99335	-2040.87677	102.70824	1649.26544	-2036.72836	244.07318	1387.18582	-2010.6601	103.83574	1386.05713	-2008.64777	236.25561	1444.39301	-2125.53101	85.14002	1449.0358	-2113.82004	158.41731	1290.6308	-2185.20386	171.64097	1316.71951	-1961.71539	170.52952	1232.26578	-1917.72415	359.09393	1410.32303	-2083.20679	398.11909	1190.93491	-2087.63458	382.18269	1082.453	-2104.05563	406.66016	977.41226	-2066.77856	337.48512	844.15688	-2000.73105	405.50652	833.91876	-2033.73688	398.83831	793.85399	-1983.59299	-6.04924	1414.85001	-2067.57614	-46.56294	1185.0956	-2123.49731	-68.23873	1084.91394	-2072.29584	-63.38245	971.79665	-2081.42288	-71.16591	834.23683	-2031.8158	-69.55897	795.46219	-1976.89789	295.6813	974.66042	-1968.27209	15.55582	971.37787	-1984.7554	245.99522	1043.82278	-2136.50955	67.91195	1047.32384	-2146.05835	301.4382	676.35544	-2136.02341	282.36506	504.97978	-2059.25873	-16.51137	846.6214	-1986.47858	276.19135	306.7223	-2065.47897	276.43316	123.82291	-2118.47946	244.99758	75.3596	-2184.94415	235.58107	86.49378	-1987.94678	10.92943	722.79633	-2147.88284	30.4412	561.31531	-2047.33322	82.14456	373.21724	-2067.44583	34.21344	124.53663	-2127.34467	43.75026	77.93344	-2008.81393	78.63755	63.05424	-2198.87497																																																																																																																							0	-0.00191
74	3.433	231.49143	1618.7677	-1907.82211	102.04573	1614.91257	-1910.93857	230.87345	1655.27679	-2035.96573	104.88111	1649.04419	-2032.73712	245.98375	1386.86417	-2006.77475	104.74271	1385.94696	-2005.30365	238.1341	1444.35059	-2121.39816	87.04637	1449.16077	-2109.43878	160.03035	1290.92926	-2181.604	173.53146	1316.13998	-1958.08334	172.20804	1231.52382	-1914.40247	361.05213	1410.00259	-2079.55963	399.64439	1190.51308	-2084.54102	383.49079	1082.11151	-2101.25519	407.65415	976.9014	-2064.10278	338.29727	843.72047	-1998.25485	406.17466	833.34023	-2031.31866	399.47685	793.23715	-1981.27228	-4.11912	1414.9147	-2063.12927	-45.0359	1185.36133	-2119.82895	-66.70471	1085.1001	-2069.07639	-62.02541	971.92513	-2078.57162	-69.82196	834.24294	-2029.42215	-68.12726	795.24246	-1974.6582	297.12143	974.24759	-1965.6192	17.08954	971.25031	-1982.0752	247.50582	1043.68767	-2133.71948	69.45142	1047.33047	-2143.22998	302.49588	676.37726	-2134.03656	282.96778	504.28905	-2058.86963	-15.14132	846.54716	-1984.09103	276.60603	306.46925	-2064.6315	276.55743	123.73403	-2118.32031	245.03233	75.41837	-2184.9855	235.61535	86.47366	-1987.95441	12.23254	723.01361	-2145.81589	31.51815	561.13651	-2045.42282	82.59941	372.90554	-2065.95779	34.43165	124.64038	-2127.26471	43.71129	77.95171	-2008.81042	78.70065	63.04991	-2198.91037																																																																																																																							0	-0.00191
